# This file uses centimeters as units for non-parametric coordinates.

g default
v 0.051335 0.714638 0.070735
v -0.122141 0.666862 -0.107294
v -0.240936 0.506814 -0.237211
v -0.014846 0.411644 0.520615
v -0.279365 0.285067 -0.285292
v -0.292439 0.012497 -0.317261
v -0.046096 -0.136522 -0.063516
v 0.197773 0.531834 -0.416857
v 0.344109 -0.108089 -0.073724
v -0.507042 0.268614 -0.121287
v -0.417221 0.499208 0.198726
v -0.103056 0.012491 -0.405886
v -0.219257 -0.014517 0.203887
v 0.472034 0.148798 -0.043575
v 0.347589 0.675653 0.039964
v 0.185545 0.127999 0.353436
v 0.167442 0.604641 0.284735
v -0.356781 -0.010233 0.069627
vt 0.424390 0.843318
vt 0.651403 0.767247
vt 0.561405 0.972904
vt 0.132912 0.624147
vt 0.003657 0.448899
vt 0.248262 0.360547
vt 0.744756 0.991249
vt 0.009049 0.226793
vt 0.923670 0.897328
vt 0.144644 0.055740
vt 0.235807 0.194470
vt 0.856873 0.669346
vt 0.992115 0.687736
vt 0.333038 0.014463
vt 0.386639 0.223516
vt 0.852470 0.446931
vt 0.555815 0.128808
vt 0.679924 0.541836
vt 0.437928 0.279569
vt 0.344298 0.652410
vt 0.498371 0.716362
vt 0.617108 0.595641
vt 0.383308 0.475149
vt 0.512195 0.462836
vn 0.078657 0.940990 -0.329166
vn 0.078657 0.940990 -0.329166
vn 0.078657 0.940990 -0.329166
vn -0.071536 0.988547 0.132883
vn -0.329178 0.902612 -0.277368
vn -0.784081 0.456481 0.420525
vn 0.383478 0.419086 -0.822989
vn -0.540578 0.554844 -0.632394
vn -0.329178 0.902612 -0.277368
vn -0.329178 0.902612 -0.277368
vn -0.540578 0.554844 -0.632394
vn -0.784081 0.456481 0.420525
vn 0.383478 0.419086 -0.822989
vn -0.582230 0.085710 -0.808494
vn -0.540578 0.554844 -0.632394
vn -0.540578 0.554844 -0.632394
vn -0.582230 0.085710 -0.808494
vn -0.928670 -0.093310 -0.358979
vn -0.062683 -0.468438 -0.881270
vn -0.701024 -0.434704 -0.565330
vn -0.582230 0.085710 -0.808494
vn -0.582230 0.085710 -0.808494
vn -0.701024 -0.434704 -0.565330
vn -0.734113 -0.641955 0.221295
vn -0.084229 -0.996362 0.012958
vn -0.701024 -0.434704 -0.565330
vn -0.062683 -0.468438 -0.881270
vn -0.084229 -0.996362 0.012958
vn -0.734113 -0.641955 0.221295
vn -0.701024 -0.434704 -0.565330
vn -0.084229 -0.996362 0.012958
vn 0.647049 -0.749964 -0.137408
vn -0.349054 -0.689135 0.635022
vn -0.071536 0.988547 0.132883
vn 0.385501 0.628604 0.675460
vn 0.737136 0.671765 0.073225
vn -0.084229 -0.996362 0.012958
vn -0.062683 -0.468438 -0.881270
vn 0.647049 -0.749964 -0.137408
vn 0.385501 0.628604 0.675460
vn 0.903281 -0.041005 -0.427086
vn 0.737136 0.671765 0.073225
vn -0.084229 -0.996362 0.012958
vn -0.349054 -0.689135 0.635022
vn -0.734113 -0.641955 0.221295
vn -0.071536 0.988547 0.132883
vn -0.784081 0.456481 0.420525
vn 0.385501 0.628604 0.675460
vn -0.540578 0.554844 -0.632394
vn -0.928670 -0.093310 -0.358979
vn -0.784081 0.456481 0.420525
vn -0.784081 0.456481 0.420525
vn -0.734113 -0.641955 0.221295
vn -0.349054 -0.689135 0.635022
vn 0.383478 0.419086 -0.822989
vn 0.647049 -0.749964 -0.137408
vn -0.062683 -0.468438 -0.881270
vn 0.383478 0.419086 -0.822989
vn -0.062683 -0.468438 -0.881270
vn -0.582230 0.085710 -0.808494
vn -0.018850 0.191858 0.981242
vn -0.349054 -0.689135 0.635022
vn 0.464536 -0.431943 0.773066
vn -0.784081 0.456481 0.420525
vn -0.349054 -0.689135 0.635022
vn -0.018850 0.191858 0.981242
vn 0.903281 -0.041005 -0.427086
vn 0.647049 -0.749964 -0.137408
vn 0.737136 0.671765 0.073225
vn 0.464536 -0.431943 0.773066
vn -0.349054 -0.689135 0.635022
vn 0.647049 -0.749964 -0.137408
vn -0.071536 0.988547 0.132883
vn 0.737136 0.671765 0.073225
vn 0.383478 0.419086 -0.822989
vn 0.737136 0.671765 0.073225
vn 0.647049 -0.749964 -0.137408
vn 0.383478 0.419086 -0.822989
vn 0.385501 0.628604 0.675460
vn 0.464536 -0.431943 0.773066
vn 0.903281 -0.041005 -0.427086
vn 0.464536 -0.431943 0.773066
vn 0.647049 -0.749964 -0.137408
vn 0.903281 -0.041005 -0.427086
vn -0.018850 0.191858 0.981242
vn 0.464536 -0.431943 0.773066
vn 0.385501 0.628604 0.675460
vn -0.784081 0.456481 0.420525
vn -0.018850 0.191858 0.981242
vn 0.385501 0.628604 0.675460
vn -0.784081 0.456481 0.420525
vn -0.928670 -0.093310 -0.358979
vn -0.734113 -0.641955 0.221295
vn -0.582230 0.085710 -0.808494
vn -0.734113 -0.641955 0.221295
vn -0.928670 -0.093310 -0.358979
s off
g Stone_3_LOD2
f 1/1/1 8/2/2 2/3/3
f 1/4/4 2/5/5 11/6/6
f 8/2/7 3/7/8 2/3/9
f 2/5/10 3/8/11 11/6/12
f 8/2/13 5/9/14 3/7/15
f 3/8/16 5/10/17 10/11/18
f 12/12/19 6/13/20 5/9/21
f 5/10/22 6/14/23 18/15/24
f 7/16/25 6/13/26 12/12/27
f 7/17/28 18/15/29 6/14/30
f 7/16/31 9/18/32 13/19/33
f 1/1/34 17/20/35 15/21/36
f 7/16/37 12/12/38 9/18/39
f 17/20/40 14/22/41 15/21/42
f 7/17/43 13/19/44 18/15/45
f 1/4/46 11/6/47 17/20/48
f 3/8/49 10/11/50 11/6/51
f 11/6/52 18/15/53 13/19/54
f 8/2/55 9/18/56 12/12/57
f 8/2/58 12/12/59 5/9/60
f 4/23/61 13/19/62 16/24/63
f 11/6/64 13/19/65 4/23/66
f 14/22/67 9/18/68 15/21/69
f 16/24/70 13/19/71 9/18/72
f 1/1/73 15/21/74 8/2/75
f 15/21/76 9/18/77 8/2/78
f 17/20/79 16/24/80 14/22/81
f 16/24/82 9/18/83 14/22/84
f 4/23/85 16/24/86 17/20/87
f 11/6/88 4/23/89 17/20/90
f 11/6/91 10/11/92 18/15/93
f 5/10/94 18/15/95 10/11/96
